<?xml version="1.0" encoding="utf-8"?>
<?xml-stylesheet type="text/xsl" href="rss1.xsl"?>
<rss version="2.0" xmlns:atom="http://www.w3.org/2005/Atom" xmlns:content="http://purl.org/rss/1.0/modules/content/" xmlns:dc="http://purl.org/dc/elements/1.1/" xmlns:media="http://search.yahoo.com/mrss/">
<channel>
 <title>Getty</title>
 <link>http://www.gettyimg.com/</link>
 <atom:link href="http://www.gettyimg.com/" rel="self" type="application/rss+xml" />

 
                <item>
                <title><![CDATA[【Apple Music】WEB-RiP - Calvin Harris &amp; Dua Lipa - One Kiss (1080p)]]></title>
                <link><![CDATA[https://sharemania.us/threads/calvin-harris-dua-lipa-one-kiss-1080p.224954/]]></link>
                <description><![CDATA[<article>
<blockquote class="messageText SelectQuoteContainer ugc baseHtml">
<img src="https://i.imgur.com/xiudmE3.jpg" class="bbCodeImage LbImage" alt="[​IMG]" data-url="https://i.imgur.com/xiudmE3.jpg" style=""><br>
<br>
<div class="bbCodeBlock bbCodeCode">
<div class="type">Code:</div>
<pre>General
Complete name                  : C:\Users\asus\Desktop\Calvin Harris &amp; Dua Lipa - One Kiss.mp4
Format                         : MPEG-4
Format profile                 : Base Media
Codec ID                       : isom (isom/iso2/avc1/mp41)
File size                      : 268 MiB
Duration                       : 3 min 43 s
Overall bit rate               : 10.1 Mb/s
Frame rate                     : 25.000 FPS
Movie name                     : One Kiss
Performer                      : Calvin Harris &amp; Dua Lipa
Genre                          : Pop
ContentType                    : Music Video
Recorded date                  : 2018-05-01 07:00:00 UTC
Writing application            : Lavf57.29.101
Copyright                      : ℗ (C) 2018 Sony Music Entertainment UK Limited

Video
ID                             : 1
Format                         : AVC
Format/Info                    : Advanced Video Codec
Format profile                 : High@L4
Format settings                : CABAC / 4 Ref Frames
Format settings, CABAC         : Yes
Format settings, Reference fra : 4 frames
Codec ID                       : avc1
Codec ID/Info                  : Advanced Video Coding
Duration                       : 3 min 43 s
Bit rate                       : 9 804 kb/s
Width                          : 1 920 pixels
Height                         : 1 080 pixels
Display aspect ratio           : 16:9
Frame rate mode                : Constant
Frame rate                     : 25.000 FPS
Color space                    : YUV
Chroma subsampling             : 4:2:0
Bit depth                      : 8 bits
Scan type                      : Progressive
Bits/(Pixel*Frame)             : 0.189
Stream size                    : 261 MiB (97%)
Color range                    : Limited
Color primaries                : BT.709
Transfer characteristics       : BT.709
Matrix coefficients            : BT.709
Codec configuration box        : avcC

Audio
ID                             : 2
Format                         : AAC LC
Format/Info                    : Advanced Audio Codec Low Complexity
Codec ID                       : mp4a-40-2
Duration                       : 3 min 43 s
Bit rate mode                  : Constant
Bit rate                       : 253 kb/s
Channel(s)                     : 2 channels
Channel layout                 : L R
Sampling rate                  : 48.0 kHz
Frame rate                     : 46.875 FPS (1024 SPF)
Compression mode               : Lossy
Stream size                    : 6.73 MiB (3%)
Default                        : Yes
Alternate group                : 1

</pre>
</div>
<div class="bbCodeBlock bbCodeVfcHH HiddenContent">
<div class="attribution type">Hidden Content:</div>
<blockquote>You must either reply or click 'Like' to see the hidden information contained here.</blockquote>
</div>
<div class="messageTextEndMarker">&nbsp;</div>
</blockquote>
</article>]]></description>
                <author><![CDATA[vitalya3]]></author>
                </item>

                
                <item>
                <title><![CDATA[【UPSCALED】Britney Spears - Born To Make You Happy (4k Upscale)]]></title>
                <link><![CDATA[https://sharemania.us/threads/britney-spears-born-to-make-you-happy-4k-upscale.224953/]]></link>
                <description><![CDATA[<article>
<blockquote class="messageText SelectQuoteContainer ugc baseHtml">
<div style="text-align: center"><a href="https://ibb.co/8dMPnpz" target="_blank" class="externalLink" rel="nofollow"><img src="https://i.ibb.co/s6jspG5/Britney-Spears-BORN-TO-MAKE-YOU-HAPPY-ddv3-mov-thumbs.jpg" class="bbCodeImage LbImage" alt="[​IMG]" data-url="https://i.ibb.co/s6jspG5/Britney-Spears-BORN-TO-MAKE-YOU-HAPPY-ddv3-mov-thumbs.jpg"></a><br>
<a href="https://ibb.co/SBDDWHm" target="_blank" class="externalLink" rel="nofollow"><img src="https://i.ibb.co/M7yyWK1/Britney-Spears-BORN-TO-MAKE-YOU-HAPPY-ddv3-mov-snapshot-00-21-980.jpg" class="bbCodeImage LbImage" alt="[​IMG]" data-url="https://i.ibb.co/M7yyWK1/Britney-Spears-BORN-TO-MAKE-YOU-HAPPY-ddv3-mov-snapshot-00-21-980.jpg"></a><br>
<a href="https://ibb.co/6g2cXqW" target="_blank" class="externalLink" rel="nofollow"><img src="https://i.ibb.co/Fg9kHdD/Britney-Spears-BORN-TO-MAKE-YOU-HAPPY-ddv3-mov-snapshot-02-00-475.jpg" class="bbCodeImage LbImage" alt="[​IMG]" data-url="https://i.ibb.co/Fg9kHdD/Britney-Spears-BORN-TO-MAKE-YOU-HAPPY-ddv3-mov-snapshot-02-00-475.jpg"></a><br>
<a href="https://ibb.co/ys4jnxD" target="_blank" class="externalLink" rel="nofollow"><img src="https://i.ibb.co/nkPJsKT/Britney-Spears-BORN-TO-MAKE-YOU-HAPPY-ddv3-mov-snapshot-02-38-436.jpg" class="bbCodeImage LbImage" alt="[​IMG]" data-url="https://i.ibb.co/nkPJsKT/Britney-Spears-BORN-TO-MAKE-YOU-HAPPY-ddv3-mov-snapshot-02-38-436.jpg"></a><br>
<br>
<br>
<div class="bbCodeBlock bbCodeVfcHH HiddenContent">
<div class="attribution type">Hidden Content:</div>
<blockquote>You must either reply or click 'Like' to see the hidden information contained here.</blockquote>
</div></div>
<div class="messageTextEndMarker">&nbsp;</div>
</blockquote>
</article>]]></description>
                <author><![CDATA[vjrhymes]]></author>
                </item>

                
                <item>
                <title><![CDATA[【Apple Music】WEB-RiP - Ellie Goulding - Easy Lover (feat. Big Sean) (1080p)]]></title>
                <link><![CDATA[https://sharemania.us/threads/ellie-goulding-easy-lover-feat-big-sean-1080p.224952/]]></link>
                <description><![CDATA[<article>
<blockquote class="messageText SelectQuoteContainer ugc baseHtml">
<img src="https://i.imgur.com/YJcXfkx.jpg" class="bbCodeImage LbImage" alt="[​IMG]" data-url="https://i.imgur.com/YJcXfkx.jpg" style=""><br>
<br>
<div class="bbCodeBlock bbCodeCode">
<div class="type">Code:</div>
<pre>General
Complete name                  : C:\Users\asus\Desktop\Ellie Goulding - Easy Lover (feat. Big Sean).mp4
Format                         : MPEG-4
Format profile                 : Base Media
Codec ID                       : isom (isom/iso2/avc1/mp41)
File size                      : 175 MiB
Duration                       : 3 min 40 s
Overall bit rate               : 6 646 kb/s
Frame rate                     : 25.000 FPS
Movie name                     : Easy Lover (feat. Big Sean)
Performer                      : Ellie Goulding
Genre                          : Pop
ContentType                    : Music Video
Recorded date                  : 2022-07-15 07:00:00 UTC
Writing application            : Lavf57.29.101
Copyright                      : ℗ 2022 Universal Music Operations Limited

Video
ID                             : 1
Format                         : AVC
Format/Info                    : Advanced Video Codec
Format profile                 : High@L4
Format settings                : CABAC / 4 Ref Frames
Format settings, CABAC         : Yes
Format settings, Reference fra : 4 frames
Codec ID                       : avc1
Codec ID/Info                  : Advanced Video Coding
Duration                       : 3 min 40 s
Bit rate                       : 6 373 kb/s
Width                          : 1 678 pixels
Height                         : 1 080 pixels
Display aspect ratio           : 16:10
Frame rate mode                : Constant
Frame rate                     : 25.000 FPS
Color space                    : YUV
Chroma subsampling             : 4:2:0
Bit depth                      : 8 bits
Scan type                      : Progressive
Bits/(Pixel*Frame)             : 0.141
Stream size                    : 168 MiB (96%)
Color range                    : Limited
Color primaries                : BT.709
Transfer characteristics       : BT.709
Matrix coefficients            : BT.709
Codec configuration box        : avcC

Audio
ID                             : 2
Format                         : AAC LC
Format/Info                    : Advanced Audio Codec Low Complexity
Codec ID                       : mp4a-40-2
Duration                       : 3 min 40 s
Bit rate mode                  : Constant
Bit rate                       : 265 kb/s
Channel(s)                     : 2 channels
Channel layout                 : L R
Sampling rate                  : 48.0 kHz
Frame rate                     : 46.875 FPS (1024 SPF)
Compression mode               : Lossy
Stream size                    : 7.08 MiB (4%)
Default                        : Yes
Alternate group                : 1

</pre>
</div>
<div class="bbCodeBlock bbCodeVfcHH HiddenContent">
<div class="attribution type">Hidden Content:</div>
<blockquote>You must either reply or click 'Like' to see the hidden information contained here.</blockquote>
</div>
<div class="messageTextEndMarker">&nbsp;</div>
</blockquote>
</article>]]></description>
                <author><![CDATA[vitalya3]]></author>
                </item>

                </channel></rss>